<?xml version="1.0" encoding="UTF-8"?>
<svg xmlns="http://www.w3.org/2000/svg" width="1080" height="1440" viewBox="0 0 1080 1440" role="img" aria-label="">
  <defs>
    <filter id="softShadow" x="-20%" y="-20%" width="140%" height="140%">
      <feDropShadow dx="0" dy="22" stdDeviation="26" flood-color="#082422" flood-opacity="0.12"/>
    </filter>
    <pattern id="grid" width="72" height="72" patternUnits="userSpaceOnUse">
      <path d="M72 0H0V72" fill="none" stroke="#133b38" stroke-width="1" opacity="0.05"/>
    </pattern>
  </defs>
  <rect width="1080" height="1440" fill="#f7f1e5"/><rect x="0" y="0" width="1080" height="1440" fill="#fff7e8" opacity="0.55"/>
  <rect width="1080" height="1440" fill="url(#grid)"/>
  <path d="M0 1080C212 1004 320 1118 510 1026C742 914 858 802 1080 840V1440H0Z" fill="#e76f51" opacity="0.18"/>
  <path d="M0 230C194 154 348 266 544 174C744 80 894 58 1080 114" fill="none" stroke="#e76f51" stroke-width="8" opacity="0.32"/>
  <g font-family='"PingFang SC", "Hiragino Sans GB", "Microsoft YaHei", "Noto Sans CJK SC", sans-serif'>
    <rect x="58" y="54" width="202" height="48" rx="24" fill="rgba(19,59,56,0.09)"/>
    <text x="159" y="87" text-anchor="middle" font-size="24" font-weight="800" fill="#133b38">AI生命克劳德</text>
    <rect x="894" y="54" width="128" height="48" rx="24" fill="rgba(19,59,56,0.1)"/>
    <text x="958" y="87" text-anchor="middle" font-size="24" font-weight="900" fill="#133b38">02/08</text>
  </g>
  
      <g>
  <rect x="74" y="206" width="182" height="52" rx="26" fill="#e76f51"/>
  <text x="165" y="240.5" text-anchor="middle" font-family='"PingFang SC", "Hiragino Sans GB", "Microsoft YaHei", "Noto Sans CJK SC", sans-serif' font-size="25" font-weight="800" fill="#fffaf0">最危险的错觉</text>
</g>
      <text x="74" y="388" text-anchor="start" font-family='"Songti SC", "Noto Serif CJK SC", "STSong", serif' font-size="70" font-weight="900" fill="#133b38">
  <tspan x="74" dy="0">看懂答案</tspan>
  <tspan x="74" dy="82.6">不等于真的会了</tspan>
</text>
      <g transform="translate(74 666)" font-family='"PingFang SC", "Hiragino Sans GB", "Microsoft YaHei", "Noto Sans CJK SC", sans-serif'>
        <g transform="translate(0 0)">
  <rect width="910" height="104" rx="24" fill="#fffaf0" stroke="#d8cbb5" stroke-width="2" filter="url(#softShadow)"/>
  <rect x="34" y="28" width="48" height="48" rx="16" fill="#f1c94a"/>
  <text x="112" y="47" font-size="30" font-weight="900" fill="#133b38">读了总结</text>
  <text x="112" y="82" font-size="24" font-weight="650" fill="#64726e">觉得自己懂了</text>
</g>
        <g transform="translate(0 138)">
  <rect width="910" height="104" rx="24" fill="#fffaf0" stroke="#d8cbb5" stroke-width="2" filter="url(#softShadow)"/>
  <rect x="34" y="28" width="48" height="48" rx="16" fill="#5aa7a0"/>
  <text x="112" y="47" font-size="30" font-weight="900" fill="#133b38">复制代码</text>
  <text x="112" y="82" font-size="24" font-weight="650" fill="#64726e">觉得自己会了</text>
</g>
        <g transform="translate(0 276)">
  <rect width="910" height="104" rx="24" fill="#fffaf0" stroke="#d8cbb5" stroke-width="2" filter="url(#softShadow)"/>
  <rect x="34" y="28" width="48" height="48" rx="16" fill="#e76f51"/>
  <text x="112" y="47" font-size="30" font-weight="900" fill="#133b38">AI 改完</text>
  <text x="112" y="82" font-size="24" font-weight="650" fill="#64726e">觉得自己进步了</text>
</g>
      </g>
      <text x="82" y="1122" text-anchor="start" font-family='"PingFang SC", "Hiragino Sans GB", "Microsoft YaHei", "Noto Sans CJK SC", sans-serif' font-size="38" font-weight="850" fill="#133b38">
  <tspan x="82" dy="0">换个场景，问题又来了。</tspan>
</text>
  <g font-family='"PingFang SC", "Hiragino Sans GB", "Microsoft YaHei", "Noto Sans CJK SC", sans-serif' font-size="28" font-weight="800" fill="#64726e" opacity="0.86">
  <text x="74" y="1372">更早发现</text>
  <text x="540" y="1372" text-anchor="middle">更准判断</text>
  <text x="1006" y="1372" text-anchor="end">更快行动</text>
</g>
</svg>