<?xml version="1.0" encoding="UTF-8"?>
<svg xmlns="http://www.w3.org/2000/svg" width="1080" height="1440" viewBox="0 0 1080 1440" role="img" aria-label="">
  <defs>
    <filter id="softShadow" x="-20%" y="-20%" width="140%" height="140%">
      <feDropShadow dx="0" dy="22" stdDeviation="26" flood-color="#082422" flood-opacity="0.12"/>
    </filter>
    <pattern id="grid" width="72" height="72" patternUnits="userSpaceOnUse">
      <path d="M72 0H0V72" fill="none" stroke="#133b38" stroke-width="1" opacity="0.05"/>
    </pattern>
  </defs>
  <rect width="1080" height="1440" fill="#e9f1ed"/>
  <rect width="1080" height="1440" fill="url(#grid)"/>
  <path d="M0 1080C212 1004 320 1118 510 1026C742 914 858 802 1080 840V1440H0Z" fill="#f1c94a" opacity="0.18"/>
  <path d="M0 230C194 154 348 266 544 174C744 80 894 58 1080 114" fill="none" stroke="#f1c94a" stroke-width="8" opacity="0.32"/>
  <g font-family='"PingFang SC", "Hiragino Sans GB", "Microsoft YaHei", "Noto Sans CJK SC", sans-serif'>
    <rect x="58" y="54" width="202" height="48" rx="24" fill="rgba(19,59,56,0.09)"/>
    <text x="159" y="87" text-anchor="middle" font-size="24" font-weight="800" fill="#133b38">AI生命克劳德</text>
    <rect x="894" y="54" width="128" height="48" rx="24" fill="rgba(19,59,56,0.1)"/>
    <text x="958" y="87" text-anchor="middle" font-size="24" font-weight="900" fill="#133b38">06/08</text>
  </g>
  
      <g>
  <rect x="74" y="206" width="172" height="52" rx="26" fill="#f1c94a"/>
  <text x="160" y="240.5" text-anchor="middle" font-family='"PingFang SC", "Hiragino Sans GB", "Microsoft YaHei", "Noto Sans CJK SC", sans-serif' font-size="25" font-weight="800" fill="#082422">通用流程</text>
</g>
      <text x="74" y="382" text-anchor="start" font-family='"Songti SC", "Noto Serif CJK SC", "STSong", serif' font-size="66" font-weight="900" fill="#133b38">
  <tspan x="74" dy="0">任何方向</tspan>
  <tspan x="74" dy="77.88">都可以先跑这 5 步</tspan>
</text>
      <g transform="translate(116 636)" font-family='"PingFang SC", "Hiragino Sans GB", "Microsoft YaHei", "Noto Sans CJK SC", sans-serif'>
        <g transform="translate(0 0)">
  <circle cx="72" cy="72" r="64" fill="#fffaf0" stroke="#d8cbb5" stroke-width="2" filter="url(#softShadow)"/>
  <text x="72" y="82" text-anchor="middle" font-size="38" font-weight="900" fill="#133b38">1</text>
  <text x="72" y="182" text-anchor="middle" font-size="25" font-weight="850" fill="#133b38">定最小目标</text>
</g>
        <g transform="translate(146 0)">
  <circle cx="72" cy="72" r="64" fill="#fffaf0" stroke="#d8cbb5" stroke-width="2" filter="url(#softShadow)"/>
  <text x="72" y="82" text-anchor="middle" font-size="38" font-weight="900" fill="#133b38">2</text>
  <text x="72" y="182" text-anchor="middle" font-size="25" font-weight="850" fill="#133b38">建立资料层</text>
</g>
        <g transform="translate(292 0)">
  <circle cx="72" cy="72" r="64" fill="#fffaf0" stroke="#d8cbb5" stroke-width="2" filter="url(#softShadow)"/>
  <text x="72" y="82" text-anchor="middle" font-size="38" font-weight="900" fill="#133b38">3</text>
  <text x="72" y="182" text-anchor="middle" font-size="25" font-weight="850" fill="#133b38">进入练习层</text>
</g>
        <g transform="translate(438 0)">
  <circle cx="72" cy="72" r="64" fill="#fffaf0" stroke="#d8cbb5" stroke-width="2" filter="url(#softShadow)"/>
  <text x="72" y="82" text-anchor="middle" font-size="38" font-weight="900" fill="#133b38">4</text>
  <text x="72" y="182" text-anchor="middle" font-size="25" font-weight="850" fill="#133b38">设计验收</text>
</g>
        <g transform="translate(584 0)">
  <circle cx="72" cy="72" r="64" fill="#fffaf0" stroke="#d8cbb5" stroke-width="2" filter="url(#softShadow)"/>
  <text x="72" y="82" text-anchor="middle" font-size="38" font-weight="900" fill="#133b38">5</text>
  <text x="72" y="182" text-anchor="middle" font-size="25" font-weight="850" fill="#133b38">复盘沉淀</text>
</g>
      </g>
      <text x="86" y="1132" text-anchor="start" font-family='"PingFang SC", "Hiragino Sans GB", "Microsoft YaHei", "Noto Sans CJK SC", sans-serif' font-size="38" font-weight="800" fill="#133b38">
  <tspan x="86" dy="0">别只保存聊天记录。</tspan>
  <tspan x="86" dy="51.68000000000001">要沉淀成模板、错题卡、SOP 或 skill。</tspan>
</text>
  <g font-family='"PingFang SC", "Hiragino Sans GB", "Microsoft YaHei", "Noto Sans CJK SC", sans-serif' font-size="28" font-weight="800" fill="#64726e" opacity="0.86">
  <text x="74" y="1372">更早发现</text>
  <text x="540" y="1372" text-anchor="middle">更准判断</text>
  <text x="1006" y="1372" text-anchor="end">更快行动</text>
</g>
</svg>