<?xml version="1.0" encoding="UTF-8"?>
<svg xmlns="http://www.w3.org/2000/svg" width="1080" height="1440" viewBox="0 0 1080 1440" role="img" aria-label="">
  <defs>
    <filter id="softShadow" x="-20%" y="-20%" width="140%" height="140%">
      <feDropShadow dx="0" dy="22" stdDeviation="26" flood-color="#082422" flood-opacity="0.36"/>
    </filter>
    <pattern id="grid" width="72" height="72" patternUnits="userSpaceOnUse">
      <path d="M72 0H0V72" fill="none" stroke="#fffaf0" stroke-width="1" opacity="0.06"/>
    </pattern>
  </defs>
  <rect width="1080" height="1440" fill="#082422"/><rect x="0" y="0" width="1080" height="1440" fill="#133b38" opacity="0.78"/>
  <rect width="1080" height="1440" fill="url(#grid)"/>
  <path d="M0 1080C212 1004 320 1118 510 1026C742 914 858 802 1080 840V1440H0Z" fill="#f1c94a" opacity="0.16"/>
  <path d="M0 230C194 154 348 266 544 174C744 80 894 58 1080 114" fill="none" stroke="#f1c94a" stroke-width="8" opacity="0.35"/>
  <g font-family='"PingFang SC", "Hiragino Sans GB", "Microsoft YaHei", "Noto Sans CJK SC", sans-serif'>
    <rect x="58" y="54" width="202" height="48" rx="24" fill="rgba(255,250,240,0.13)"/>
    <text x="159" y="87" text-anchor="middle" font-size="24" font-weight="800" fill="#fffaf0">AI生命克劳德</text>
    <rect x="894" y="54" width="128" height="48" rx="24" fill="rgba(255,250,240,0.13)"/>
    <text x="958" y="87" text-anchor="middle" font-size="24" font-weight="900" fill="#fffaf0">08/08</text>
  </g>
  
      <g>
  <rect x="74" y="206" width="172" height="52" rx="26" fill="#f1c94a"/>
  <text x="160" y="240.5" text-anchor="middle" font-family='"PingFang SC", "Hiragino Sans GB", "Microsoft YaHei", "Noto Sans CJK SC", sans-serif' font-size="25" font-weight="800" fill="#082422">系列预告</text>
</g>
      <text x="74" y="386" text-anchor="start" font-family='"Songti SC", "Noto Serif CJK SC", "STSong", serif' font-size="82" font-weight="900" fill="#fffaf0">
  <tspan x="74" dy="0">别把学习</tspan>
  <tspan x="74" dy="91.84">外包给 AI</tspan>
</text>
      <g transform="translate(74 650)" font-family='"PingFang SC", "Hiragino Sans GB", "Microsoft YaHei", "Noto Sans CJK SC", sans-serif'>
        <g transform="translate(0 0)">
  <rect width="252" height="82" rx="24" fill="rgba(255,250,240,0.13)" stroke="rgba(255,250,240,0.2)" stroke-width="2"/>
  <text x="126" y="52" text-anchor="middle" font-size="30" font-weight="850" fill="#fffaf0">编程篇</text>
</g>
        <g transform="translate(292 0)">
  <rect width="252" height="82" rx="24" fill="rgba(255,250,240,0.13)" stroke="rgba(255,250,240,0.2)" stroke-width="2"/>
  <text x="126" y="52" text-anchor="middle" font-size="30" font-weight="850" fill="#fffaf0">写作篇</text>
</g>
        <g transform="translate(584 0)">
  <rect width="252" height="82" rx="24" fill="rgba(255,250,240,0.13)" stroke="rgba(255,250,240,0.2)" stroke-width="2"/>
  <text x="126" y="52" text-anchor="middle" font-size="30" font-weight="850" fill="#fffaf0">英语篇</text>
</g>
        <g transform="translate(0 126)">
  <rect width="252" height="82" rx="24" fill="rgba(255,250,240,0.13)" stroke="rgba(255,250,240,0.2)" stroke-width="2"/>
  <text x="126" y="52" text-anchor="middle" font-size="30" font-weight="850" fill="#fffaf0">知识管理</text>
</g>
        <g transform="translate(292 126)">
  <rect width="252" height="82" rx="24" fill="rgba(255,250,240,0.13)" stroke="rgba(255,250,240,0.2)" stroke-width="2"/>
  <text x="126" y="52" text-anchor="middle" font-size="30" font-weight="850" fill="#fffaf0">考试篇</text>
</g>
        <g transform="translate(584 126)">
  <rect width="252" height="82" rx="24" fill="rgba(255,250,240,0.13)" stroke="rgba(255,250,240,0.2)" stroke-width="2"/>
  <text x="126" y="52" text-anchor="middle" font-size="30" font-weight="850" fill="#fffaf0">工作技能</text>
</g>
      </g>
      <text x="78" y="1056" text-anchor="start" font-family='"PingFang SC", "Hiragino Sans GB", "Microsoft YaHei", "Noto Sans CJK SC", sans-serif' font-size="42" font-weight="850" fill="rgba(255,250,240,0.92)">
  <tspan x="78" dy="0">让 AI 训练你完成学习，</tspan>
  <tspan x="78" dy="56.28">不要让它替你完成学习。</tspan>
</text>
  <g font-family='"PingFang SC", "Hiragino Sans GB", "Microsoft YaHei", "Noto Sans CJK SC", sans-serif' font-size="28" font-weight="800" fill="rgba(255,250,240,0.72)" opacity="0.86">
  <text x="74" y="1372">更早发现</text>
  <text x="540" y="1372" text-anchor="middle">更准判断</text>
  <text x="1006" y="1372" text-anchor="end">更快行动</text>
</g>
</svg>